# xmcd CD database file
#
# Track frame offsets:
#	150
#	12483
#	26795
#	36870
#	60284
#	74816
#	87108
#	101175
#	113833
#
# Disc length: 1726 seconds
#
# Revision: 0
# Processed by: cddbd v1.5.2PL0 Copyright (c) Steve Scherf et al.
# Submitted via: CDex 1.79
#
DISCID=7806bc09
DTITLE=Two Tramps - On the Road
DYEAR=2017
DGENRE=Jazz
TTITLE0=Sunny
TTITLE1=Stormy Weather
TTITLE2=Aqua de beber
TTITLE3=If I ain't got you
TTITLE4=Sittin' on the dock of the bay
TTITLE5=Summertime
TTITLE6=As time goes by
TTITLE7=What a wonderful world
TTITLE8=Stormy Weather (with Grand Piano)
EXTD=YEAR: 2017
EXTT0=
EXTT1=
EXTT2=
EXTT3=
EXTT4=
EXTT5=
EXTT6=
EXTT7=
EXTT8=
PLAYORDER=
